<?xml version="1.0" encoding="UTF-8"?>
<svg width="42px" height="42px" viewBox="0 0 42 42" version="1.1" xmlns="http://www.w3.org/2000/svg" xmlns:xlink="http://www.w3.org/1999/xlink">
    <!--
		Mein Chatserver
		▔▔▔▔▔▔▔▔▔▔▔▔▔▔▔▔▔▔▔▔▔▔▔▔▔▔▔▔▔▔
		Licensed Materials - Property of mein-chatserver.de.
		© Copyright 2024. All Rights Reserved.
		
		@version 1.0.0
		@author  Adrian Preuß
	-->
    <g stroke="none" stroke-width="1" fill="none" fill-rule="evenodd">
        <g transform="translate(-525.000000, -544.000000)" fill-rule="nonzero">
            <g transform="translate(525.000000, 544.000000)">
                <path d="M20.8199161,0.00391730769 C20.8199161,0.00391730769 33.1272749,-0.549402404 39.6501685,11.8077447 C36.2042777,11.8077447 19.7735916,11.8077447 19.7735916,11.8077447 C19.7735916,11.8077447 16.0198048,11.6843495 12.8198393,16.2346288 C11.8968037,18.140399 10.9124498,20.1078668 12.0200925,23.9807784 C10.4202729,21.2762038 3.52783882,9.28728365 3.52783882,9.28728365 C3.52783882,9.28728365 8.38959454,0.495539423 20.8199161,0.00391730769 Z" fill="#FF6565" opacity="0.9"></path>
                <path d="M39.0095884,31.3782875 C39.0095884,31.3782875 33.3343871,42.3020264 19.3609979,41.7647024 C21.0847588,38.7839577 29.3017326,24.5690274 29.3017326,24.5690274 C29.3017326,24.5690274 31.2854438,21.382624 28.9429555,16.3390904 C27.7521418,14.587401 24.1448012,12.7514894 20.2334786,11.7728154 C23.3789752,11.7414769 39.6110292,11.774774 39.6110292,11.774774 C39.6110292,11.774774 44.7995983,20.3781611 39.0095884,31.3782875 Z" fill="#FFE291"></path>
                <path d="M2.71798108,31.4612038 C2.71798108,31.4612038 -3.91319803,21.0881731 3.53990677,9.26704423 C5.26236296,12.2490947 13.4747705,26.4666365 13.4747705,26.4666365 C13.4747705,26.4666365 15.2438678,29.7761087 20.7876261,30.2709952 C22.9008232,30.1169144 25.0991483,29.9860111 27.9031543,27.0921 C26.3571512,29.8286659 19.4089436,41.7842889 19.4089436,41.7842889 C19.4089436,41.7842889 9.3573142,41.9716668 2.71798108,31.4612038 Z" fill="#37E291" opacity="0.891183036"></path>
                <ellipse fill="#FFFFFF" cx="20.7700134" cy="21.0620577" rx="9.45866873" ry="9.46682692"></ellipse>
                <ellipse fill="#00C3FF" cx="20.7667518" cy="21.0620577" rx="7.50170279" ry="7.50817308"></ellipse>
            </g>
        </g>
    </g>
</svg>