<?xml version="1.0" encoding="UTF-8"?>
<svg width="36" height="36" viewBox="0 0 36 36" fill="none" xmlns="http://www.w3.org/2000/svg">
    <!--
		Mein Chatserver
		▔▔▔▔▔▔▔▔▔▔▔▔▔▔▔▔▔▔▔▔▔▔▔▔▔▔▔▔▔▔
		Licensed Materials - Property of mein-chatserver.de.
		© Copyright 2024. All Rights Reserved.
		
		@version 1.0.0
		@author  Adrian Preuß
	-->
    <path opacity="0.01" d="M36.0001 2.76929H2.76929V36.0001H36.0001V2.76929Z" fill="white" fill-opacity="0.01"/>
    <path opacity="0.01" d="M33.2308 0H0V33.2308H33.2308V0Z" fill="white" fill-opacity="0.01"/>
    <path d="M31.7099 11.1182C31.0118 9.43953 29.5974 7.62592 28.4873 7.0536C29.2784 8.58472 29.827 10.2288 30.1132 11.9275L30.1168 11.9548C28.3014 7.42721 25.2228 5.60269 22.7075 1.62735C22.5799 1.42685 22.4523 1.22458 22.3284 1.01311C22.2573 0.891043 22.2007 0.781666 22.1515 0.681417C22.0477 0.479082 21.9674 0.265782 21.9127 0.045245C21.9127 0.0233694 21.8964 0.00694887 21.8763 0.00333078C21.8672 0.00149391 21.8563 0.00149391 21.8453 0.00333078C21.8435 0.00333078 21.8398 0.00694887 21.838 0.00878575C21.8362 0.00878575 21.8307 0.0142964 21.8271 0.0142964L21.8326 0.00338644C17.7989 2.36555 16.43 6.73827 16.3044 8.92554C14.6931 9.0367 13.1529 9.62912 11.8843 10.6298C11.7512 10.5168 11.6145 10.4129 11.4705 10.3162C11.1042 9.03492 11.0895 7.68059 11.4249 6.39015C9.94308 7.10826 8.62704 8.12539 7.55898 9.37758H7.55169C6.91557 8.57008 6.95927 5.91078 6.99578 5.35482C6.80803 5.43136 6.62763 5.52615 6.45992 5.63915C5.8985 6.04014 5.37354 6.49035 4.89056 6.9843C4.34011 7.54204 3.83886 8.14353 3.38866 8.78516V8.787V8.78332C2.35706 10.247 1.62431 11.9002 1.23423 13.65L1.21235 13.7557C1.18135 13.8979 1.0738 14.6051 1.05377 14.7582C1.05377 14.771 1.05193 14.7819 1.05009 14.7928C0.911547 15.5237 0.824045 16.2638 0.79126 17.0074V17.0895C0.798552 25.9588 7.99644 33.1439 16.8657 33.1348C24.6779 33.1275 31.3508 27.5026 32.6777 19.8035C32.705 19.5957 32.7269 19.3916 32.7506 19.1819C33.0824 16.4514 32.7233 13.6773 31.7099 11.1182ZM13.2003 23.6876C13.275 23.7308 13.3461 23.7764 13.4227 23.8174L13.4336 23.8261C13.3552 23.7828 13.2768 23.7374 13.2003 23.6876ZM30.1187 11.9801V11.9439L30.1277 11.9847L30.1187 11.9801Z" fill="url(#paint0_linear_732_674)"/>
    <path d="M31.71 11.1178C31.0119 9.43916 29.5975 7.62555 28.4874 7.05322C29.2785 8.58434 29.8271 10.2284 30.1133 11.9271V11.9417L30.1169 11.9581C31.3545 15.4997 31.1759 19.3838 29.6175 22.7978C27.7765 26.7476 23.3218 30.7959 16.3481 30.599C8.81307 30.3857 2.17654 24.7936 0.93526 17.47C0.709213 16.3144 0.93526 15.7293 1.04826 14.7906C0.895127 15.5197 0.80768 16.2615 0.79126 17.007V17.089C0.798552 25.9584 7.99644 33.1435 16.8657 33.1344C24.6779 33.1271 31.3508 27.5022 32.6777 19.803C32.705 19.5953 32.7269 19.3911 32.7506 19.1815C33.0826 16.4511 32.7234 13.6769 31.71 11.1178Z" fill="url(#paint1_radial_732_674)"/>
    <path d="M31.71 11.1178C31.0119 9.43916 29.5975 7.62555 28.4874 7.05322C29.2785 8.58434 29.8271 10.2284 30.1133 11.9271V11.9417L30.1169 11.9581C31.3545 15.4997 31.1759 19.3838 29.6175 22.7978C27.7765 26.7476 23.3218 30.7959 16.3481 30.599C8.81307 30.3857 2.17654 24.7936 0.93526 17.47C0.709213 16.3144 0.93526 15.7293 1.04826 14.7906C0.895127 15.5197 0.80768 16.2615 0.79126 17.007V17.089C0.798552 25.9584 7.99644 33.1435 16.8657 33.1344C24.6779 33.1271 31.3508 27.5022 32.6777 19.803C32.705 19.5953 32.7269 19.3911 32.7506 19.1815C33.0826 16.4511 32.7234 13.6769 31.71 11.1178Z" fill="url(#paint2_radial_732_674)"/>
    <path d="M23.9052 13.0045C23.9398 13.0282 23.9726 13.0537 24.0054 13.0774C23.6026 12.3629 23.0996 11.7067 22.5145 11.1326C17.5221 6.14023 21.2057 0.309376 21.8273 0.0122469L21.8328 0.00317383C17.7991 2.36534 16.4303 6.73805 16.3046 8.92533C16.4923 8.91258 16.6782 8.89616 16.8695 8.89616C19.7822 8.90156 22.4689 10.471 23.9052 13.0045Z" fill="url(#paint3_radial_732_674)"/>
    <path d="M16.8786 14.0015C16.8513 14.4006 15.4405 15.7786 14.9465 15.7786C10.3807 15.7786 9.63879 18.5419 9.63879 18.5419C9.84113 20.8676 11.4615 22.7833 13.4209 23.7967C13.5102 23.8423 13.6014 23.8842 13.6925 23.9261C13.8492 23.9954 14.0061 24.061 14.1646 24.1194C14.8372 24.3581 15.5408 24.493 16.2534 24.5221C24.2569 24.8976 25.808 14.9511 20.0319 12.0639C21.3953 11.8871 22.7751 12.2225 23.9034 13.0044C22.4689 10.4709 19.7822 8.90151 16.8677 8.896C16.6764 8.896 16.4905 8.91242 16.3027 8.92516C14.6914 9.03632 13.1512 9.62874 11.8827 10.6294C12.1269 10.8371 12.4039 11.1142 12.9854 11.6865C14.0771 12.7602 16.8731 13.872 16.8786 14.0015Z" fill="url(#paint4_radial_732_674)"/>
    <path d="M16.8786 14.0015C16.8513 14.4006 15.4405 15.7786 14.9465 15.7786C10.3807 15.7786 9.63879 18.5419 9.63879 18.5419C9.84113 20.8676 11.4615 22.7833 13.4209 23.7967C13.5102 23.8423 13.6014 23.8842 13.6925 23.9261C13.8492 23.9954 14.0061 24.061 14.1646 24.1194C14.8372 24.3581 15.5408 24.493 16.2534 24.5221C24.2569 24.8976 25.808 14.9511 20.0319 12.0639C21.3953 11.8871 22.7751 12.2225 23.9034 13.0044C22.4689 10.4709 19.7822 8.90151 16.8677 8.896C16.6764 8.896 16.4905 8.91242 16.3027 8.92516C14.6914 9.03632 13.1512 9.62874 11.8827 10.6294C12.1269 10.8371 12.4039 11.1142 12.9854 11.6865C14.0771 12.7602 16.8731 13.872 16.8786 14.0015Z" fill="url(#paint5_radial_732_674)"/>
    <path d="M11.1352 10.0938C11.2646 10.1758 11.3722 10.2487 11.4669 10.3143C11.1006 9.0329 11.086 7.67862 11.4214 6.38818C9.93952 7.10635 8.62348 8.12342 7.55542 9.37561C7.63557 9.37383 9.96507 9.33186 11.1352 10.0938Z" fill="url(#paint6_radial_732_674)"/>
    <path d="M0.937229 17.4706C2.17668 24.7942 8.81314 30.3845 16.3482 30.5996C23.3219 30.7964 27.7766 26.7482 29.6176 22.7983C31.176 19.3844 31.3546 15.502 30.117 11.9587V11.9441C30.117 11.9313 30.1152 11.9259 30.117 11.9295L30.1206 11.9569C30.6911 15.677 28.7991 19.2805 25.8409 21.7175L25.8318 21.7375C20.0684 26.431 14.5528 24.57 13.4373 23.81C13.359 23.7736 13.2824 23.7334 13.2041 23.6933C9.84475 22.0875 8.4559 19.0253 8.75297 16.4006C7.1235 16.4243 5.63245 15.4875 4.94897 14.0074C6.74254 12.9083 8.97713 12.819 10.8527 13.7704C12.7539 14.6344 14.9193 14.7183 16.8823 14.0074C16.8768 13.8762 14.0808 12.7643 12.9908 11.6907C12.4094 11.1166 12.1323 10.8413 11.888 10.6336C11.7549 10.5206 11.6182 10.4167 11.4742 10.32C11.3795 10.2544 11.2719 10.1852 11.1425 10.0995C9.97049 9.3376 7.64111 9.37951 7.56457 9.3814H7.55728C6.92111 8.5739 6.96486 5.9146 7.00132 5.35864C6.81362 5.43518 6.63316 5.52997 6.46545 5.64297C5.90409 6.04396 5.37913 6.49417 4.89614 6.98812C4.34386 7.54403 3.84077 8.14552 3.38874 8.78531V8.78709V8.78347C2.35713 10.2471 1.62439 11.9003 1.2343 13.6501C1.22701 13.683 0.656521 16.1765 0.937229 17.4706Z" fill="url(#paint7_radial_732_674)"/>
    <path d="M22.5144 11.1326C23.1014 11.7086 23.6026 12.3648 24.0054 13.0793C24.0929 13.1467 24.1767 13.2124 24.246 13.2761C27.8878 16.6318 25.9794 21.3762 25.8372 21.7153C28.7955 19.2783 30.6856 15.6748 30.1169 11.9547C28.2997 7.42527 25.2212 5.60075 22.7058 1.62541C22.5782 1.42492 22.4506 1.22258 22.3266 1.01117C22.2556 0.889048 22.1991 0.779671 22.1499 0.679422C22.0459 0.477087 21.9657 0.263842 21.9111 0.0433058C21.9111 0.0213746 21.8946 0.00500966 21.8746 0.00133591C21.8655 -0.000445304 21.8546 -0.000445304 21.8436 0.00133591C21.8418 0.00133591 21.8381 0.004954 21.8363 0.00684654C21.8345 0.00684654 21.829 0.0123015 21.8254 0.0123015C21.2057 0.309375 17.522 6.14023 22.5144 11.1326Z" fill="url(#paint8_radial_732_674)"/>
    <path d="M24.2442 13.2759C24.1749 13.2122 24.091 13.1447 24.0036 13.0791C23.9707 13.0554 23.938 13.0299 23.9033 13.0062C22.7732 12.2242 21.3934 11.8889 20.0319 12.0656C25.808 14.9547 24.2587 24.8994 16.2534 24.5239C15.5407 24.4947 14.8372 24.358 14.1646 24.1211C14.0079 24.0627 13.8511 23.9971 13.6925 23.9279C13.6014 23.8859 13.5102 23.8458 13.4209 23.7984L13.4318 23.8057C14.5473 24.5677 20.061 26.4286 25.8262 21.7333L25.8353 21.7133C25.9794 21.3761 27.886 16.6297 24.2442 13.2759Z" fill="url(#paint9_radial_732_674)"/>
    <path d="M9.63881 18.5421C9.63881 18.5421 10.3807 15.7789 14.9466 15.7789C15.4405 15.7789 16.8531 14.4009 16.8786 14.0017C14.9155 14.7125 12.7501 14.6287 10.8491 13.7647C8.97353 12.8132 6.73888 12.9026 4.94531 14.0017C5.6288 15.4817 7.11979 16.4186 8.74932 16.3949C8.45219 19.0214 9.83931 22.0818 13.2004 23.6876C13.2751 23.724 13.3462 23.7624 13.4228 23.797C11.4615 22.7835 9.84109 20.8679 9.63881 18.5421Z" fill="url(#paint10_radial_732_674)"/>
    <path d="M31.71 11.1182C31.0118 9.43953 29.5974 7.62592 28.4874 7.0536C29.2784 8.58472 29.827 10.2288 30.1132 11.9275L30.1168 11.9548C28.3014 7.42721 25.2228 5.60269 22.7075 1.62735C22.58 1.42685 22.4524 1.22458 22.3284 1.01311C22.2573 0.891043 22.2008 0.781666 22.1516 0.681417C22.0477 0.479082 21.9674 0.265782 21.9128 0.045245C21.9128 0.0233694 21.8964 0.00694887 21.8764 0.00333078C21.8673 0.00149391 21.8563 0.00149391 21.8454 0.00333078C21.8435 0.00333078 21.8399 0.00694887 21.8381 0.00878575C21.8362 0.00878575 21.8308 0.0142964 21.8271 0.0142964L21.8326 0.00338644C17.799 2.36555 16.4301 6.73827 16.3044 8.92554C16.4921 8.9128 16.6781 8.89638 16.8694 8.89638C19.7839 8.90189 22.4688 10.4712 23.9069 13.0048C22.7768 12.2228 21.397 11.8875 20.0354 12.0643C25.8116 14.9533 24.2623 24.8981 16.257 24.5225C15.5443 24.4934 14.8408 24.3567 14.1682 24.1197C14.0114 24.0614 13.8546 23.9958 13.696 23.9265C13.6049 23.8846 13.5138 23.8445 13.4245 23.7971L13.4354 23.8044C13.357 23.768 13.2805 23.7279 13.2021 23.6877C13.2768 23.7241 13.3479 23.7625 13.4245 23.7971C11.4632 22.7837 9.84461 20.868 9.64233 18.5423C9.64233 18.5423 10.3842 15.779 14.9501 15.779C15.444 15.779 16.8566 14.401 16.8821 14.0018C16.8766 13.8706 14.0806 12.7587 12.9907 11.6851C12.4092 11.111 12.1321 10.8358 11.8879 10.628C11.7548 10.515 11.6181 10.4111 11.4741 10.3145C11.1078 9.03308 11.0931 7.6788 11.4286 6.38837C9.9467 7.10653 8.63072 8.12361 7.5626 9.3758H7.55531C6.91919 8.56835 6.96289 5.90906 6.9994 5.35304C6.81165 5.42963 6.63125 5.52437 6.46354 5.63737C5.90212 6.03836 5.37716 6.48856 4.89417 6.98257C4.34372 7.54032 3.84254 8.14175 3.39228 8.78344V8.78522V8.78154C2.36068 10.2452 1.62793 11.8984 1.23784 13.6482L1.21597 13.7539C1.18496 13.8961 1.05009 14.6124 1.03005 14.7673C1.03005 14.7782 1.03005 14.7545 1.03005 14.7673C0.904256 15.5091 0.825882 16.2565 0.79126 17.0074V17.0895C0.798552 25.9588 7.99644 33.1439 16.8657 33.1348C24.6779 33.1275 31.3508 27.5026 32.6777 19.8035C32.705 19.5957 32.7269 19.3916 32.7506 19.1819C33.0825 16.4514 32.7234 13.6773 31.71 11.1182ZM30.1169 11.942L30.1259 11.9829L30.1169 11.942Z" fill="url(#paint11_linear_732_674)"/>
    <defs>
        <linearGradient id="paint0_linear_732_674" x1="28.7834" y1="5.13267" x2="2.98792" y2="30.0204" gradientUnits="userSpaceOnUse">
            <stop offset="0.048" stop-color="#FFF44F"/>
            <stop offset="0.111" stop-color="#FFE847"/>
            <stop offset="0.225" stop-color="#FFC830"/>
            <stop offset="0.368" stop-color="#FF980E"/>
            <stop offset="0.401" stop-color="#FF8B16"/>
            <stop offset="0.462" stop-color="#FF672A"/>
            <stop offset="0.534" stop-color="#FF3647"/>
            <stop offset="0.705" stop-color="#E31587"/>
        </linearGradient>
        <radialGradient id="paint1_radial_732_674" cx="0" cy="0" r="1" gradientUnits="userSpaceOnUse" gradientTransform="translate(23.2483 3.67859) scale(33.4791)">
            <stop offset="0.129" stop-color="#FFBD4F"/>
            <stop offset="0.186" stop-color="#FFAC31"/>
            <stop offset="0.247" stop-color="#FF9D17"/>
            <stop offset="0.283" stop-color="#FF980E"/>
            <stop offset="0.403" stop-color="#FF563B"/>
            <stop offset="0.467" stop-color="#FF3750"/>
            <stop offset="0.71" stop-color="#F5156C"/>
            <stop offset="0.782" stop-color="#EB0878"/>
            <stop offset="0.86" stop-color="#E50080"/>
        </radialGradient>
        <radialGradient id="paint2_radial_732_674" cx="0" cy="0" r="1" gradientUnits="userSpaceOnUse" gradientTransform="translate(13.2765 17.3658) scale(33.4792)">
            <stop offset="0.3" stop-color="#960E18"/>
            <stop offset="0.351" stop-color="#B11927" stop-opacity="0.74"/>
            <stop offset="0.435" stop-color="#DB293D" stop-opacity="0.343"/>
            <stop offset="0.497" stop-color="#F5334B" stop-opacity="0.094"/>
            <stop offset="0.53" stop-color="#FF3750" stop-opacity="0"/>
        </radialGradient>
        <radialGradient id="paint3_radial_732_674" cx="0" cy="0" r="1" gradientUnits="userSpaceOnUse" gradientTransform="translate(20.1549 -2.37517) scale(24.2534)">
            <stop offset="0.132" stop-color="#FFF44F"/>
            <stop offset="0.252" stop-color="#FFDC3E"/>
            <stop offset="0.506" stop-color="#FF9D12"/>
            <stop offset="0.526" stop-color="#FF980E"/>
        </radialGradient>
        <radialGradient id="paint4_radial_732_674" cx="0" cy="0" r="1" gradientUnits="userSpaceOnUse" gradientTransform="translate(12.4151 23.85) scale(15.9409)">
            <stop offset="0.353" stop-color="#3A8EE6"/>
            <stop offset="0.472" stop-color="#5C79F0"/>
            <stop offset="0.669" stop-color="#9059FF"/>
            <stop offset="1" stop-color="#C139E6"/>
        </radialGradient>
        <radialGradient id="paint5_radial_732_674" cx="0" cy="0" r="1" gradientUnits="userSpaceOnUse" gradientTransform="translate(20.8908 9.3297) rotate(-12.4449) scale(8.41336 8.49213)">
            <stop offset="0.206" stop-color="#9059FF" stop-opacity="0"/>
            <stop offset="0.278" stop-color="#8C4FF3" stop-opacity="0.064"/>
            <stop offset="0.747" stop-color="#7716A8" stop-opacity="0.45"/>
            <stop offset="0.975" stop-color="#6E008B" stop-opacity="0.6"/>
        </radialGradient>
        <radialGradient id="paint6_radial_732_674" cx="0" cy="0" r="1" gradientUnits="userSpaceOnUse" gradientTransform="translate(15.6955 2.29886) scale(11.4679)">
            <stop stop-color="#FFE226"/>
            <stop offset="0.121" stop-color="#FFDB27"/>
            <stop offset="0.295" stop-color="#FFC82A"/>
            <stop offset="0.502" stop-color="#FFA930"/>
            <stop offset="0.732" stop-color="#FF7E37"/>
            <stop offset="0.792" stop-color="#FF7139"/>
        </radialGradient>
        <radialGradient id="paint7_radial_732_674" cx="0" cy="0" r="1" gradientUnits="userSpaceOnUse" gradientTransform="translate(20.9118 -4.96448) scale(48.928)">
            <stop offset="0.113" stop-color="#FFF44F"/>
            <stop offset="0.456" stop-color="#FF980E"/>
            <stop offset="0.622" stop-color="#FF5634"/>
            <stop offset="0.716" stop-color="#FF3647"/>
            <stop offset="0.904" stop-color="#E31587"/>
        </radialGradient>
        <radialGradient id="paint8_radial_732_674" cx="0" cy="0" r="1" gradientUnits="userSpaceOnUse" gradientTransform="translate(4.99196 9.13153) rotate(77.4291) scale(17.3007 74.3315)">
            <stop stop-color="#FFF44F"/>
            <stop offset="0.06" stop-color="#FFE847"/>
            <stop offset="0.168" stop-color="#FFC830"/>
            <stop offset="0.304" stop-color="#FF980E"/>
            <stop offset="0.356" stop-color="#FF8B16"/>
            <stop offset="0.455" stop-color="#FF672A"/>
            <stop offset="0.57" stop-color="#FF3647"/>
            <stop offset="0.737" stop-color="#E31587"/>
        </radialGradient>
        <radialGradient id="paint9_radial_732_674" cx="0" cy="0" r="1" gradientUnits="userSpaceOnUse" gradientTransform="translate(15.1522 6.55647) scale(30.5467)">
            <stop offset="0.137" stop-color="#FFF44F"/>
            <stop offset="0.48" stop-color="#FF980E"/>
            <stop offset="0.592" stop-color="#FF5634"/>
            <stop offset="0.655" stop-color="#FF3647"/>
            <stop offset="0.904" stop-color="#E31587"/>
        </radialGradient>
        <radialGradient id="paint10_radial_732_674" cx="0" cy="0" r="1" gradientUnits="userSpaceOnUse" gradientTransform="translate(21.1736 8.34455) scale(33.4332)">
            <stop offset="0.094" stop-color="#FFF44F"/>
            <stop offset="0.231" stop-color="#FFE141"/>
            <stop offset="0.509" stop-color="#FFAF1E"/>
            <stop offset="0.626" stop-color="#FF980E"/>
        </radialGradient>
        <linearGradient id="paint11_linear_732_674" x1="28.4839" y1="4.99598" x2="6.50923" y2="26.9703" gradientUnits="userSpaceOnUse">
            <stop offset="0.167" stop-color="#FFF44F" stop-opacity="0.8"/>
            <stop offset="0.266" stop-color="#FFF44F" stop-opacity="0.634"/>
            <stop offset="0.489" stop-color="#FFF44F" stop-opacity="0.217"/>
            <stop offset="0.6" stop-color="#FFF44F" stop-opacity="0"/>
        </linearGradient>
    </defs>
</svg>